<svg width="50" height="50" viewBox="0 0 50 50" fill="none" xmlns="http://www.w3.org/2000/svg">
<g clip-path="url(#clip0_692_137)">
<path d="M7.10321 26.9322L5.65832 26.9236H5V20.8107H7.14595C8.78748 20.8107 10.0357 22.0247 10.0357 23.803C10.0357 25.5814 8.74473 26.9407 7.10321 26.9322ZM5.79511 26.1713H7.04336C8.30015 26.1713 9.24061 25.0427 9.24061 23.803C9.24061 22.5719 8.3429 21.5716 7.08611 21.5716H5.79511V26.1713Z" fill="black"/>
<path d="M12.2984 27.0605C10.7253 27.0605 9.87891 26.0345 9.87891 24.7606C9.87891 23.4867 10.8023 22.5206 12.1275 22.5206C13.4783 22.5206 14.3162 23.5466 14.3076 24.7093C14.3076 24.7948 14.3162 24.9915 14.3076 25.0684L10.7082 25.0599C10.7082 25.6241 11.2041 26.3765 12.2386 26.3765C12.9055 26.3765 13.3159 26.0089 13.4099 25.7011H14.2136C14.0939 26.1457 13.521 27.0605 12.2984 27.0605ZM10.7082 24.4443H13.4783C13.4783 23.7603 12.9653 23.179 12.136 23.179C11.2896 23.179 10.7082 23.8202 10.7082 24.4443Z" fill="black"/>
<path d="M18.0698 25.6669C18.0698 26.5475 17.4286 27.0605 16.206 27.0605C15.0689 27.0605 14.0771 26.4193 14.0771 25.6412H14.8295C14.8295 25.9576 15.4793 26.3509 16.2488 26.3509C16.9242 26.3509 17.3004 26.1542 17.3004 25.7353C17.3004 24.5982 14.1285 25.4275 14.1285 23.7603C14.1285 23.102 14.8295 22.5206 16.0008 22.5206C17.1208 22.5206 17.9502 23.0251 17.9502 23.7347H17.1978C17.1978 23.4012 16.6762 23.1875 15.9752 23.1875C15.3596 23.1875 14.8979 23.4098 14.8979 23.7689C14.8979 24.5982 18.0698 23.9142 18.0698 25.6669Z" fill="black"/>
<path d="M18.1025 21.7512V20.939H18.9404V21.7512H18.1025ZM18.1538 26.9237V22.6489H18.9062V26.9237H18.1538Z" fill="black"/>
<path d="M22.5193 26.4877C22.1944 26.8467 21.7327 27.0605 21.1513 27.0605C19.9031 27.0605 19.0225 26.0345 19.0225 24.7606C19.0225 23.4867 19.9031 22.5206 21.1513 22.5206C21.7241 22.5206 22.1858 22.7173 22.5022 23.0507C22.6817 23.2388 22.7415 23.5808 22.8356 23.8287L22.9724 23.7774C22.8869 23.5295 22.7501 23.2302 22.733 22.9738L22.7159 22.6489H23.4683V27.0434C23.4597 28.2061 22.904 29.0611 21.3138 29.0611C20.0228 29.0611 19.2704 28.437 19.2277 27.411H19.9971C20.0313 28.1805 20.7837 28.3515 21.2283 28.3515C22.3141 28.3515 22.7159 27.8128 22.7159 27.0092C22.7159 26.8382 22.7159 26.7014 22.7244 26.5646C22.7415 26.3081 22.8869 26.0089 22.9638 25.778L22.827 25.7267C22.7415 25.9576 22.6817 26.2996 22.5193 26.4877ZM19.7663 24.7692C19.7663 25.6412 20.2622 26.3423 21.2112 26.3423C22.1089 26.3423 22.6048 25.7096 22.6475 24.8974V24.6495C22.6048 23.8458 22.1089 23.2388 21.2112 23.2388C20.2622 23.2388 19.7663 23.9057 19.7663 24.7692Z" fill="black"/>
<path d="M24.9366 22.8883C25.3385 22.5634 25.7061 22.5206 26.3131 22.5206C27.2023 22.5206 27.8862 23.0165 27.8862 23.9912V26.9237H27.1339V24.5298C27.1339 23.6235 26.7833 23.2217 26.0652 23.2217C25.2701 23.2217 24.6032 23.6235 24.6032 24.5298V26.9237H23.8594V22.6489H24.6032V22.7429C24.6032 23.0336 24.4664 23.3756 24.3553 23.6406L24.492 23.6919C24.6032 23.4269 24.7143 23.0678 24.9366 22.8883Z" fill="black"/>
<path d="M32.301 21.7084H29.0949V23.6064H31.8308V24.3759H29.0949V26.9237H28.2998V20.939H32.301V21.7084Z" fill="black"/>
<path d="M32.498 25.8892V20.7252H33.2504V25.7524C33.2504 26.1029 33.3701 26.2141 33.7377 26.2141H34.3191V26.9237H33.7719C32.8828 26.9237 32.498 26.6159 32.498 25.8892Z" fill="black"/>
<path d="M33.9023 24.7692C33.9023 23.4525 34.8343 22.5206 36.185 22.5206C37.5358 22.5206 38.4677 23.4782 38.4677 24.7692C38.4677 26.0602 37.5358 27.0605 36.185 27.0605C34.8343 27.0605 33.9023 26.0773 33.9023 24.7692ZM34.6718 24.7692C34.6718 25.6241 35.1677 26.3423 36.185 26.3423C37.2024 26.3423 37.6983 25.6327 37.6983 24.7692C37.6983 23.9057 37.2024 23.2388 36.185 23.2388C35.1677 23.2388 34.6718 23.9057 34.6718 24.7692Z" fill="black"/>
<path d="M38.8579 22.6489L39.8582 25.6755C39.918 25.8636 39.8835 26.1115 39.875 26.3082H40.0292C40.0292 26.1201 39.995 25.8636 40.0634 25.6755L41.0893 22.6489H41.8588L42.8933 25.6755C42.9617 25.8636 42.9275 26.1201 42.9275 26.3082H43.0728C43.0728 26.1115 43.0386 25.8636 43.0982 25.6755L44.0988 22.6489H44.8853L43.3977 26.9237H42.5424L41.5681 23.786C41.5168 23.5979 41.551 23.35 41.551 23.1619H41.4056C41.4056 23.35 41.4398 23.5979 41.38 23.786L40.405 26.9237H39.5589L38.0713 22.6489H38.8579Z" fill="black"/>
</g>
<defs>
<clipPath id="clip0_692_137">
<rect width="40" height="8.54962" fill="white" transform="translate(5 20.7252)"/>
</clipPath>
</defs>
</svg>
