<svg width="512" height="512" viewBox="0 0 512 512" fill="none" xmlns="http://www.w3.org/2000/svg">
<path d="M97.0034 249.108L72.9564 248.965H62V147H97.7149C125.035 147 145.809 167.25 145.809 196.913C145.809 226.575 124.323 249.25 97.0034 249.108ZM75.233 236.415H96.0074C116.924 236.415 132.576 217.591 132.576 196.913C132.576 176.377 117.636 159.692 96.7188 159.692H75.233V236.415Z" fill="#0A0A0A"/>
<path d="M184.897 251.247C158.715 251.247 144.628 234.134 144.628 212.885C144.628 191.636 159.996 175.522 182.051 175.522C204.533 175.522 218.477 192.635 218.335 212.029C218.335 213.455 218.477 216.735 218.335 218.019L158.431 217.876C158.431 227.288 166.683 239.838 183.901 239.838C194.999 239.838 201.829 233.706 203.394 228.572H216.77C214.778 235.988 205.244 251.247 184.897 251.247ZM158.431 207.609H204.533C204.533 196.2 195.995 186.503 182.193 186.503C168.106 186.503 158.431 197.198 158.431 207.609Z" fill="#0A0A0A"/>
<path d="M282.363 228.002C282.363 242.69 271.691 251.247 251.344 251.247C232.419 251.247 215.914 240.551 215.914 227.574H228.435C228.435 232.85 239.249 239.41 252.055 239.41C263.296 239.41 269.557 236.13 269.557 229.142C269.557 210.175 216.767 224.009 216.767 196.2C216.767 185.219 228.435 175.522 247.929 175.522C266.569 175.522 280.371 183.936 280.371 195.772H267.85C267.85 190.21 259.17 186.645 247.502 186.645C237.257 186.645 229.573 190.353 229.573 196.342C229.573 210.175 282.363 198.767 282.363 228.002Z" fill="#0A0A0A"/>
<path d="M284.341 162.687V149.139H298.285V162.687H284.341ZM285.195 248.965V177.661H297.716V248.965H285.195Z" fill="#0A0A0A"/>
<path d="M359.262 241.692C353.855 247.681 346.171 251.247 336.496 251.247C315.721 251.247 301.065 234.134 301.065 212.885C301.065 191.636 315.721 175.522 336.496 175.522C346.029 175.522 353.713 178.802 358.978 184.363C361.966 187.501 362.962 193.205 364.527 197.341L366.804 196.485C365.381 192.349 363.104 187.358 362.819 183.08L362.535 177.661H375.056V250.961C374.914 270.356 365.665 284.617 339.199 284.617C317.713 284.617 305.192 274.207 304.48 257.094H317.287C317.856 269.928 330.377 272.781 337.776 272.781C355.847 272.781 362.535 263.796 362.535 250.391C362.535 247.539 362.535 245.257 362.677 242.975C362.962 238.697 365.381 233.706 366.661 229.855L364.385 229C362.962 232.85 361.966 238.555 359.262 241.692ZM313.445 213.028C313.445 227.574 321.698 239.268 337.492 239.268C352.432 239.268 360.685 228.715 361.397 215.167V211.031C360.685 197.626 352.432 187.501 337.492 187.501C321.698 187.501 313.445 198.624 313.445 213.028Z" fill="#0A0A0A"/>
<path d="M400.91 181.654C407.598 176.235 413.716 175.522 423.819 175.522C438.617 175.522 450 183.793 450 200.05V248.965H437.478V209.035C437.478 193.918 431.645 187.216 419.692 187.216C406.459 187.216 395.361 193.918 395.361 209.035V248.965H382.981V177.661H395.361V179.229C395.361 184.078 393.084 189.783 391.234 194.203L393.511 195.059C395.361 190.638 397.21 184.649 400.91 181.654Z" fill="#0A0A0A"/>
<path d="M128.592 275.727H75.233V307.386H120.766V320.221H75.233V362.718H62V262.892H128.592V275.727Z" fill="#0A0A0A"/>
<path d="M133.302 345.463V259.327H145.823V343.181C145.823 349.028 147.815 350.882 153.934 350.882H163.61V362.718H154.503C139.705 362.718 133.302 357.584 133.302 345.463Z" fill="#0A0A0A"/>
<path d="M158.092 326.781C158.092 304.819 173.601 289.275 196.083 289.275C218.565 289.275 234.075 305.247 234.075 326.781C234.075 348.315 218.565 365 196.083 365C173.601 365 158.092 348.6 158.092 326.781ZM170.898 326.781C170.898 341.042 179.15 353.021 196.083 353.021C213.016 353.021 221.268 341.184 221.268 326.781C221.268 312.378 213.016 301.254 196.083 301.254C179.15 301.254 170.898 312.378 170.898 326.781Z" fill="#0A0A0A"/>
<path d="M241.987 291.414L258.635 341.897C259.631 345.035 259.062 349.17 258.92 352.45H261.481C261.481 349.313 260.912 345.035 262.05 341.897L279.125 291.414H291.931L309.148 341.897C310.287 345.035 309.717 349.313 309.717 352.45H312.136C312.136 349.17 311.567 345.035 312.563 341.897L329.211 291.414H342.302L317.543 362.718H303.314L287.093 310.381C286.239 307.244 286.809 303.108 286.809 299.971H284.39C284.39 303.108 284.959 307.244 283.963 310.381L267.742 362.718H253.655L228.896 291.414H241.987Z" fill="#0A0A0A"/>
</svg>
