<svg width="100" height="100" viewBox="0 0 100 100" fill="none" xmlns="http://www.w3.org/2000/svg">
<g clip-path="url(#clip0_692_138)">
<path d="M9.73221 54.3475L6.48122 54.3283H5V40.5741H9.8284C13.5218 40.5741 16.3304 43.3057 16.3304 47.3069C16.3304 51.3081 13.4256 54.3668 9.73221 54.3475ZM6.78901 52.6355H9.59756C12.4253 52.6355 14.5414 50.0962 14.5414 47.3069C14.5414 44.5368 12.5215 42.2862 9.69374 42.2862H6.78901V52.6355Z" fill="black"/>
<path d="M21.4225 54.636C17.8829 54.636 15.9785 52.3276 15.9785 49.4614C15.9785 46.5951 18.0561 44.4214 21.0378 44.4214C24.0771 44.4214 25.9623 46.7298 25.9431 49.346C25.9431 49.5383 25.9623 49.9808 25.9431 50.1539L17.8445 50.1347C17.8445 51.4043 18.9602 53.0971 21.2878 53.0971C22.7883 53.0971 23.7116 52.2699 23.9232 51.5774H25.7315C25.4622 52.5777 24.1733 54.636 21.4225 54.636ZM17.8445 48.7496H24.0771C24.0771 47.2107 22.9229 45.9026 21.057 45.9026C19.1526 45.9026 17.8445 47.3454 17.8445 48.7496Z" fill="black"/>
<path d="M34.4064 51.5005C34.4064 53.4818 32.9636 54.636 30.2128 54.636C27.6543 54.636 25.4229 53.1933 25.4229 51.4428H27.1157C27.1157 52.1545 28.5777 53.0394 30.309 53.0394C31.8287 53.0394 32.6751 52.597 32.6751 51.6544C32.6751 49.0959 25.5383 50.9618 25.5383 47.2107C25.5383 45.7295 27.1157 44.4214 29.7511 44.4214C32.2711 44.4214 34.1371 45.5563 34.1371 47.153H32.4443C32.4443 46.4028 31.2708 45.9218 29.6934 45.9218C28.3083 45.9218 27.2696 46.422 27.2696 47.2299C27.2696 49.0959 34.4064 47.557 34.4064 51.5005Z" fill="black"/>
<path d="M34.4814 42.6902V40.8627H36.3666V42.6902H34.4814ZM34.5969 54.3283V44.71H36.2897V54.3283H34.5969Z" fill="black"/>
<path d="M44.4186 53.3472C43.6876 54.1551 42.6488 54.636 41.3407 54.636C38.5322 54.636 36.5508 52.3276 36.5508 49.4614C36.5508 46.5951 38.5322 44.4214 41.3407 44.4214C42.6296 44.4214 43.6683 44.8638 44.3801 45.6141C44.7841 46.0373 44.9187 46.8067 45.1303 47.3646L45.4381 47.2492C45.2457 46.6913 44.938 46.018 44.8995 45.4409L44.861 44.7099H46.5538V54.5976C46.5346 57.2138 45.2842 59.1374 41.7062 59.1374C38.8015 59.1374 37.1086 57.7331 37.0125 55.4247H38.7438C38.8207 57.156 40.5135 57.5408 41.5138 57.5408C43.9569 57.5408 44.861 56.3289 44.861 54.5206C44.861 54.1359 44.861 53.8281 44.8802 53.5203C44.9187 52.9432 45.2457 52.2699 45.4189 51.7505L45.1111 51.6351C44.9187 52.1545 44.7841 52.924 44.4186 53.3472ZM38.2244 49.4806C38.2244 51.4428 39.3401 53.0202 41.4754 53.0202C43.4952 53.0202 44.6109 51.5967 44.7071 49.7692V49.2113C44.6109 47.4031 43.4952 46.0373 41.4754 46.0373C39.3401 46.0373 38.2244 47.5377 38.2244 49.4806Z" fill="black"/>
<path d="M49.8564 45.2486C50.7606 44.5176 51.5877 44.4214 52.9535 44.4214C54.9541 44.4214 56.4931 45.5371 56.4931 47.7301V54.3283H54.8003V48.942C54.8003 46.9029 54.0115 45.9988 52.3957 45.9988C50.6067 45.9988 49.1062 46.9029 49.1062 48.942V54.3283H47.4326V44.7099H49.1062V44.9215C49.1062 45.5756 48.7984 46.3451 48.5483 46.9414L48.8561 47.0568C49.1062 46.4605 49.3563 45.6525 49.8564 45.2486Z" fill="black"/>
<path d="M66.4266 42.594H59.2128V46.8645H65.3686V48.5958H59.2128V54.3283H57.4238V40.8627H66.4266V42.594Z" fill="black"/>
<path d="M66.8711 52.0006V40.3817H68.5639V51.6929C68.5639 52.4816 68.8332 52.7316 69.6604 52.7316H70.9685V54.3283H69.7374C67.7367 54.3283 66.8711 53.6358 66.8711 52.0006Z" fill="black"/>
<path d="M70.0293 49.4806C70.0293 46.5182 72.1261 44.4214 75.1652 44.4214C78.2046 44.4214 80.3014 46.5759 80.3014 49.4806C80.3014 52.3854 78.2046 54.636 75.1652 54.636C72.1261 54.636 70.0293 52.4238 70.0293 49.4806ZM71.7606 49.4806C71.7606 51.4043 72.8763 53.0202 75.1652 53.0202C77.4544 53.0202 78.5701 51.4235 78.5701 49.4806C78.5701 47.5377 77.4544 46.0373 75.1652 46.0373C72.8763 46.0373 71.7606 47.5377 71.7606 49.4806Z" fill="black"/>
<path d="M81.1799 44.71L83.4306 51.5197C83.5653 51.9429 83.4876 52.5008 83.4684 52.9432H83.8153C83.8153 52.52 83.7384 51.9429 83.8923 51.5197L86.2007 44.71H87.932L90.2596 51.5197C90.4135 51.9429 90.3366 52.52 90.3366 52.9432H90.6636C90.6636 52.5008 90.5866 51.9429 90.7206 51.5197L92.972 44.71H94.7418L91.3946 54.3283H89.4702L87.2779 47.2684C87.1625 46.8452 87.2395 46.2874 87.2395 45.8642H86.9124C86.9124 46.2874 86.9894 46.8452 86.8547 47.2684L84.6611 54.3283H82.7573L79.4102 44.71H81.1799Z" fill="black"/>
</g>
<defs>
<clipPath id="clip0_692_138">
<rect width="90" height="19.2366" fill="white" transform="translate(5 40.3817)"/>
</clipPath>
</defs>
</svg>
